<?xml version="1.0" encoding="UTF-8"?>
<svg xmlns="http://www.w3.org/2000/svg" xmlns:xlink="http://www.w3.org/1999/xlink" viewBox="0 0 477.28 261.87">
  <defs>
    <style>
      .cls-1 {
        fill: url(#linear-gradient-5);
      }

      .cls-2 {
        fill: url(#linear-gradient-6);
      }

      .cls-3 {
        fill: url(#linear-gradient-4);
      }

      .cls-4 {
        fill: url(#linear-gradient-3);
      }

      .cls-5 {
        fill: url(#linear-gradient-2);
      }

      .cls-6 {
        fill: url(#linear-gradient);
      }

      .cls-7 {
        fill: #fee065;
      }
    </style>
    <linearGradient id="linear-gradient" x1="80.16" y1="73.87" x2="82.59" y2="118.2" gradientUnits="userSpaceOnUse">
      <stop offset="0" stop-color="#fffffd"/>
      <stop offset=".06" stop-color="#fefdf3"/>
      <stop offset=".16" stop-color="#fef8db"/>
      <stop offset=".29" stop-color="#feefb3"/>
      <stop offset=".44" stop-color="#fee47c"/>
      <stop offset=".5" stop-color="#fee065"/>
      <stop offset=".61" stop-color="#fbdc63"/>
      <stop offset=".71" stop-color="#f4d25d"/>
      <stop offset=".79" stop-color="#e7c154"/>
      <stop offset=".88" stop-color="#d5a946"/>
      <stop offset=".96" stop-color="#bf8a35"/>
      <stop offset="1" stop-color="#b0752a"/>
    </linearGradient>
    <linearGradient id="linear-gradient-2" x1="206.3" y1="44.29" x2="206.3" y2="277.49" gradientUnits="userSpaceOnUse">
      <stop offset="0" stop-color="#fffffd"/>
      <stop offset=".03" stop-color="#e7eef4"/>
      <stop offset=".09" stop-color="#aec8e1"/>
      <stop offset=".16" stop-color="#7fa7d1"/>
      <stop offset=".22" stop-color="#5a8ec4"/>
      <stop offset=".27" stop-color="#407cbb"/>
      <stop offset=".32" stop-color="#3071b5"/>
      <stop offset=".36" stop-color="#2b6eb4"/>
      <stop offset=".52" stop-color="#284d82"/>
      <stop offset=".66" stop-color="#27335a"/>
      <stop offset=".8" stop-color="#26203d"/>
      <stop offset=".91" stop-color="#25152c"/>
      <stop offset="1" stop-color="#251126"/>
    </linearGradient>
    <linearGradient id="linear-gradient-3" x1="312.74" y1="44.29" x2="312.74" y2="277.49" xlink:href="#linear-gradient-2"/>
    <linearGradient id="linear-gradient-4" x1="83.89" y1="44.29" x2="83.89" y2="277.49" xlink:href="#linear-gradient-2"/>
    <linearGradient id="linear-gradient-5" x1="83.89" y1="44.29" x2="83.89" y2="277.49" xlink:href="#linear-gradient-2"/>
    <linearGradient id="linear-gradient-6" x1="392.07" y1="184.6" x2="477.28" y2="184.6" gradientUnits="userSpaceOnUse">
      <stop offset="0" stop-color="#2b6eb4"/>
      <stop offset="1" stop-color="#251126"/>
    </linearGradient>
  </defs>
  <g id="Fire">
    <path class="cls-6" d="M80.47,128.82c-7.28-5.77-9-10.74-9.19-14.27-.3-5.88,3.6-9.12,7.04-17.59,2.93-7.23,3.73-13.85,3.91-18.57,3.98,7.3,6.46,13.71,8.01,18.37,4.15,12.44,3,16.3,2.54,17.59-2.13,6.02-7.82,9.11-10.56,10.36.3-.56,1.17-2.35.78-4.69-.34-2.1-1.5-3.43-1.95-3.91-.52,1.56-1.06,3.77-1.17,6.45-.1,2.55.23,4.7.59,6.25Z"/>
  </g>
  <g id="Rays">
    <path class="cls-7" d="M81.23,0c.69,5.84,1.01,11.69,1.27,17.53.27,5.84.25,11.69.39,17.53-.13,5.84-.12,11.69-.38,17.53l-.46,8.77c-.28,2.92-.44,5.84-.82,8.77-.38-2.92-.54-5.84-.82-8.77l-.46-8.77c-.26-5.84-.25-11.69-.38-17.53.14-5.84.11-11.69.39-17.53.27-5.84.59-11.69,1.27-17.53Z"/>
    <path class="cls-7" d="M163.65,51.51c-20.21,13.38-41.54,25.14-63.65,35.09,20.22-13.39,41.54-25.14,63.65-35.09h0Z"/>
    <path class="cls-7" d="M.17,50.77c20.66,13.63,42.43,25.63,64.99,35.82C44.5,72.96,22.73,60.96.17,50.77H.17Z"/>
    <path class="cls-7" d="M165.16,94.74c-21.66.98-43.49.98-65.16,0,21.67-.98,43.5-.98,65.16,0h0Z"/>
    <path class="cls-7" d="M65.16,95.48c-21.66.98-43.49.98-65.16,0,21.67-.98,43.5-.98,65.16,0h0Z"/>
    <path class="cls-7" d="M32.51,37.26c11.65,13.6,24.31,26.49,37.7,38.38-11.66-13.61-24.31-26.49-37.7-38.38h0Z"/>
    <path class="cls-7" d="M130.22,37.26c-11.65,13.6-24.31,26.49-37.7,38.38,11.66-13.61,24.31-26.49,37.7-38.38h0Z"/>
  </g>
  <g id="YES">
    <g>
      <path class="cls-5" d="M242.94,192.23h-57.21v30.29h65.2v21.18h-89.26v-117.78h86.38v20.86h-62.33v25.01h57.21v20.46Z"/>
      <path class="cls-4" d="M312.86,226.67c5.81,0,10.52-.64,14.14-1.92,6.87-2.45,10.31-7,10.31-13.66,0-3.89-1.71-6.9-5.11-9.03-3.41-2.08-8.76-3.92-16.06-5.51l-12.47-2.8c-12.25-2.77-20.72-5.78-25.41-9.03-7.94-5.43-11.91-13.93-11.91-25.49,0-10.55,3.84-19.31,11.51-26.29,7.67-6.98,18.94-10.47,33.8-10.47,12.41,0,23,3.29,31.76,9.87,8.76,6.58,13.36,16.13,13.78,28.65h-23.65c-.43-7.08-3.52-12.12-9.27-15.1-3.84-1.97-8.6-2.96-14.3-2.96-6.34,0-11.4,1.28-15.18,3.84-3.78,2.56-5.67,6.13-5.67,10.71,0,4.21,1.86,7.35,5.59,9.43,2.4,1.39,7.51,3.01,15.34,4.87l20.3,4.87c8.9,2.13,15.61,4.98,20.14,8.55,7.03,5.54,10.55,13.56,10.55,24.05s-4.11,19.7-12.34,26.81c-8.23,7.11-19.86,10.67-34.88,10.67s-27.41-3.5-36.2-10.51c-8.79-7-13.19-16.63-13.19-28.89h23.49c.75,5.38,2.21,9.4,4.4,12.07,4,4.85,10.84,7.27,20.54,7.27Z"/>
    </g>
    <path class="cls-3" d="M156.86,111.63c-.86,3.13-3.74,4.48-5.38,4.99-2.76.89-5.32,2.11-7.58,3.58-2.24,1.49-4.2,3.22-5.73,5.15-3.66,4.66-4.98,10.48-6.38,16.64-.27,1.1-.52,2.18-.76,3.28-2.01,8.23-5.65,18.47-16.05,24.7-2.97,1.77-6.36,3.08-9.92,3.84-.1.34-.22.69-.38,1.04-1.21,2.66-3.09,5.05-5.43,6.94-.93.76-1.93,1.43-3.01,2.04.42,2.11.81,4.21,1.23,6.32.03.11.05.25.08.42.93,4.78,1.88,9.56,2.82,14.32l.66,3.29c1.33,6.73,2.66,13.46,3.92,20.18l1.1,5.86c.03.19.08.39.13.57.27,1.13.88,3.81-.86,6.21-1.89,2.59-4.93,2.62-6.23,2.64-2.48.04-8.82.04-15.17.04s-12.68,0-15.15-.04c-1.3-.02-4.34-.05-6.21-2.62-1.74-2.41-1.15-5.06-.88-6.2.03-.18.08-.35.12-.57.28-1.58.58-3.17.88-4.76l.22-1.12c1.46-7.7,2.99-15.37,4.5-23.05l.08-.44c.96-4.73,1.89-9.44,2.81-14.15v-.05l.12-.55c.42-2.11.81-4.21,1.23-6.32-1.05-.58-2.04-1.26-2.97-2-2.41-1.97-4.29-4.37-5.47-6.99-.17-.34-.28-.69-.38-1.01-8.44-1.79-15.45-6.55-19.92-13.58-3.09-4.85-5.13-10-6.26-15.72-1.81-9.45-3.89-17.71-10.88-23.09-2.67-2.05-6-3.54-8.9-4.75-.08-.04-.23-.09-.38-.14-1.36-.46-3.22-1.12-4.5-2.82-1.11-1.58-1.48-3.29-1.13-4.98.63-3.19,3.21-4.89,7.66-5.06,3.84-.19,7.66-.02,10.9.18.27.02.61.02.98.02,1.61-.02,3.42-.02,5,.64,2.13.94,3.14,2.41,3.67,3.2l.17.23c.28.34.58.66.88.96.5.53,1.01,1.06,1.46,1.63,1.68,2.12,3.12,4.43,4.3,6.92,2.29,4.69,3.56,9.61,4.49,13.79l.27,1.19c.58,2.67,1.15,5.17,2.13,7.4,1.25,2.9,3.8,5.74,7.19,7.99,1.91,1.27,3.52,1.97,5.55,2.41,2.81.6,5.76.83,8.31.97l.2.02c.27.04.53.04.8.05,7.61.41,14.17.39,20.14-.07,3.21-.25,7.33-.71,10.68-2.04.32-.12.48-.19.63-.27l.18-.09c4.49-2.04,7.74-6.07,9.7-11.97.71-2.16,1.26-4.43,1.83-6.82.9-3.82,1.84-7.79,3.64-11.74,1.76-3.91,4.24-7.56,7.36-10.84,1.1-1.15,2.48-2.39,4.47-3.06,1.35-.43,2.54-.51,3.56-.57,4.44-.19,8.94-.23,13.37-.11.86.02,3.52.11,5.35,2.32,1.26,1.58,1.69,3.65,1.18,5.58Z"/>
  </g>
  <g id="Layer_5" data-name="Layer 5">
    <path class="cls-1" d="M132.19,240.94c-6.51-5.47-12.91-14.9-16.4-39.48-.92-6.51-3.39-11.93-7.32-16.11l-.35-.37-6.51,6.12.35.37c2.65,2.81,4.33,6.6,4.99,11.24,1.02,7.17,2.58,28.86,16.8,42.63-.61.56-1.39,1.12-2.33,1.66-4.71,2.71-15.04,5.93-37.52,5.93-20.38,0-30.62-2.7-35.63-4.97-2.17-.98-3.46-1.92-4.21-2.62,3.93-3.74,12.78-14.35,16.8-42.64.66-4.65,2.34-8.43,4.99-11.24l.35-.37-6.5-6.12-.35.37c-3.94,4.18-6.4,9.6-7.32,16.11-1.83,12.91-4.01,29.07-16.4,39.48l-1.59,1.34v2.08c0,.98.38,6.07,7.92,10.4,8.22,4.72,22.34,7.12,41.97,7.12s33.75-2.4,41.97-7.12c7.54-4.33,7.92-9.42,7.92-10.4v-2.08l-1.59-1.34Z"/>
    <g id="PLUSE-SIGN">
      <path class="cls-2" d="M461.21,195.52c-4.9,0-9.8.03-14.7-.02-.95,0-1.2.24-1.2,1.19.04,9.69,0,19.38.05,29.07,0,1.08-.32,1.31-1.33,1.3-6.23-.04-12.46-.04-18.69,0-1.01,0-1.34-.22-1.34-1.3.05-9.65,0-19.3.05-28.95,0-1.04-.27-1.31-1.31-1.31-9.8.04-19.61,0-29.41.05-1.01,0-1.26-.25-1.25-1.25.05-6.5.04-12.99,0-19.49,0-.9.24-1.14,1.14-1.14,9.84.03,19.68,0,29.52.04,1.04,0,1.32-.27,1.31-1.31-.04-9.65,0-19.3-.05-28.95,0-1.08.32-1.31,1.33-1.3,6.23.04,12.46.04,18.69,0,1.01,0,1.34.22,1.34,1.3-.05,9.65,0,19.3-.05,28.95,0,1.04.27,1.31,1.31,1.31,9.8-.04,19.61,0,29.41-.05,1.01,0,1.26.25,1.25,1.25-.05,6.5-.04,12.99,0,19.49,0,.9-.24,1.14-1.14,1.14-4.98-.04-9.95-.02-14.93-.02Z"/>
    </g>
  </g>
</svg>